<?xml version="1.0" encoding="UTF-8" standalone="no"?><svg xmlns="http://www.w3.org/2000/svg" xmlns:xlink="http://www.w3.org/1999/xlink" contentScriptType="application/ecmascript" contentStyleType="text/css" height="337px" preserveAspectRatio="none" style="width:1164px;height:337px;" version="1.1" viewBox="0 0 1164 337" width="1164px" zoomAndPan="magnify"><defs><filter height="300%" id="f3u1rtupa8sag" width="300%" x="-1" y="-1"><feGaussianBlur result="blurOut" stdDeviation="2.0"/><feColorMatrix in="blurOut" result="blurOut2" type="matrix" values="0 0 0 0 0 0 0 0 0 0 0 0 0 0 0 0 0 0 .4 0"/><feOffset dx="4.0" dy="4.0" in="blurOut2" result="blurOut3"/><feBlend in="SourceGraphic" in2="blurOut3" mode="normal"/></filter></defs><g><!--MD5=[cb8a12caddea0e4f4a4443ac73e0810b]
cluster pwr.sim.animal.ai--><polygon fill="#FFFFFF" filter="url(#f3u1rtupa8sag)" points="22,24.5,164,24.5,171,46.7969,921,46.7969,921,289,22,289,22,24.5" style="stroke: #000000; stroke-width: 1.5;"/><line style="stroke: #000000; stroke-width: 1.5;" x1="22" x2="171" y1="46.7969" y2="46.7969"/><text fill="#000000" font-family="sans-serif" font-size="14" font-weight="bold" lengthAdjust="spacingAndGlyphs" textLength="136" x="26" y="39.4951">pwr.sim.animal.ai</text><!--MD5=[7eeeb206a6d334978b95fb0cfc669640]
cluster pwr.sim.animal.ai.state--><polygon fill="#FFFFFF" filter="url(#f3u1rtupa8sag)" points="945,183.5,1132,183.5,1139,205.7969,1142,205.7969,1142,282.5,945,282.5,945,183.5" style="stroke: #000000; stroke-width: 1.5;"/><line style="stroke: #000000; stroke-width: 1.5;" x1="945" x2="1139" y1="205.7969" y2="205.7969"/><text fill="#000000" font-family="sans-serif" font-size="14" font-weight="bold" lengthAdjust="spacingAndGlyphs" textLength="181" x="949" y="198.4951">pwr.sim.animal.ai.state</text><!--MD5=[6e5091db196423e8828a8b761bd947a5]
class pwr.sim.animal.ai.AiBehaviourLion--><a href="AiBehaviourLion.html" target="_top" title="AiBehaviourLion.html" xlink:actuate="onRequest" xlink:href="AiBehaviourLion.html" xlink:show="new" xlink:title="AiBehaviourLion.html" xlink:type="simple"><rect fill="#FEFECE" filter="url(#f3u1rtupa8sag)" height="60.8047" id="pwr.sim.animal.ai.AiBehaviourLion" style="stroke: #A80036; stroke-width: 1.5;" width="130" x="38" y="212"/><ellipse cx="53" cy="228" fill="#ADD1B2" rx="11" ry="11" style="stroke: #A80036; stroke-width: 1.0;"/><path d="M55.9688,233.6406 Q55.3906,233.9375 54.75,234.0781 Q54.1094,234.2344 53.4063,234.2344 Q50.9063,234.2344 49.5781,232.5938 Q48.2656,230.9375 48.2656,227.8125 Q48.2656,224.6875 49.5781,223.0313 Q50.9063,221.375 53.4063,221.375 Q54.1094,221.375 54.75,221.5313 Q55.4063,221.6875 55.9688,221.9844 L55.9688,224.7031 Q55.3438,224.125 54.75,223.8594 Q54.1563,223.5781 53.5313,223.5781 Q52.1875,223.5781 51.5,224.6563 Q50.8125,225.7188 50.8125,227.8125 Q50.8125,229.9063 51.5,230.9844 Q52.1875,232.0469 53.5313,232.0469 Q54.1563,232.0469 54.75,231.7813 Q55.3438,231.5 55.9688,230.9219 L55.9688,233.6406 Z "/><text fill="#000000" font-family="sans-serif" font-size="12" lengthAdjust="spacingAndGlyphs" textLength="98" x="67" y="232.1543">AiBehaviourLion</text><line style="stroke: #A80036; stroke-width: 1.5;" x1="39" x2="167" y1="244" y2="244"/><line style="stroke: #A80036; stroke-width: 1.5;" x1="39" x2="167" y1="252" y2="252"/><ellipse cx="49" cy="263" fill="#84BE84" rx="3" ry="3" style="stroke: #038048; stroke-width: 1.0;"/><text fill="#000000" font-family="sans-serif" font-size="11" lengthAdjust="spacingAndGlyphs" textLength="78" x="58" y="266.2104">update(): void</text></a><!--MD5=[ef2616cc0edc2f56e121b970d24f922a]
class pwr.sim.animal.ai.AiBehaviour--><a href="AiBehaviour.html" target="_top" title="AiBehaviour.html" xlink:actuate="onRequest" xlink:href="AiBehaviour.html" xlink:show="new" xlink:title="AiBehaviour.html" xlink:type="simple"><rect fill="#FEFECE" filter="url(#f3u1rtupa8sag)" height="60.8047" id="pwr.sim.animal.ai.AiBehaviour" style="stroke: #A80036; stroke-width: 1.5;" width="105" x="498.5" y="59.5"/><ellipse cx="513.5" cy="75.5" fill="#A9DCDF" rx="11" ry="11" style="stroke: #A80036; stroke-width: 1.0;"/><path d="M513.6094,70.8438 L512.4531,75.9219 L514.7813,75.9219 L513.6094,70.8438 Z M512.125,68.6094 L515.1094,68.6094 L518.4688,81 L516.0156,81 L515.25,77.9375 L511.9688,77.9375 L511.2188,81 L508.7813,81 L512.125,68.6094 Z "/><text fill="#000000" font-family="sans-serif" font-size="12" font-style="italic" lengthAdjust="spacingAndGlyphs" textLength="73" x="527.5" y="79.6543">AiBehaviour</text><line style="stroke: #A80036; stroke-width: 1.5;" x1="499.5" x2="602.5" y1="91.5" y2="91.5"/><line style="stroke: #A80036; stroke-width: 1.5;" x1="499.5" x2="602.5" y1="99.5" y2="99.5"/><ellipse cx="509.5" cy="110.5" fill="#84BE84" rx="3" ry="3" style="stroke: #038048; stroke-width: 1.0;"/><text fill="#000000" font-family="sans-serif" font-size="11" font-style="italic" lengthAdjust="spacingAndGlyphs" textLength="79" x="518.5" y="113.7104">update(): void</text></a><!--MD5=[08383b39ab380372cb4e4081a667c24f]
class pwr.sim.animal.ai.AiBehaviourAntelope--><a href="AiBehaviourAntelope.html" target="_top" title="AiBehaviourAntelope.html" xlink:actuate="onRequest" xlink:href="AiBehaviourAntelope.html" xlink:show="new" xlink:title="AiBehaviourAntelope.html" xlink:type="simple"><rect fill="#FEFECE" filter="url(#f3u1rtupa8sag)" height="60.8047" id="pwr.sim.animal.ai.AiBehaviourAntelope" style="stroke: #A80036; stroke-width: 1.5;" width="161" x="203.5" y="212"/><ellipse cx="218.5" cy="228" fill="#ADD1B2" rx="11" ry="11" style="stroke: #A80036; stroke-width: 1.0;"/><path d="M221.4688,233.6406 Q220.8906,233.9375 220.25,234.0781 Q219.6094,234.2344 218.9063,234.2344 Q216.4063,234.2344 215.0781,232.5938 Q213.7656,230.9375 213.7656,227.8125 Q213.7656,224.6875 215.0781,223.0313 Q216.4063,221.375 218.9063,221.375 Q219.6094,221.375 220.25,221.5313 Q220.9063,221.6875 221.4688,221.9844 L221.4688,224.7031 Q220.8438,224.125 220.25,223.8594 Q219.6563,223.5781 219.0313,223.5781 Q217.6875,223.5781 217,224.6563 Q216.3125,225.7188 216.3125,227.8125 Q216.3125,229.9063 217,230.9844 Q217.6875,232.0469 219.0313,232.0469 Q219.6563,232.0469 220.25,231.7813 Q220.8438,231.5 221.4688,230.9219 L221.4688,233.6406 Z "/><text fill="#000000" font-family="sans-serif" font-size="12" lengthAdjust="spacingAndGlyphs" textLength="129" x="232.5" y="232.1543">AiBehaviourAntelope</text><line style="stroke: #A80036; stroke-width: 1.5;" x1="204.5" x2="363.5" y1="244" y2="244"/><line style="stroke: #A80036; stroke-width: 1.5;" x1="204.5" x2="363.5" y1="252" y2="252"/><ellipse cx="214.5" cy="263" fill="#84BE84" rx="3" ry="3" style="stroke: #038048; stroke-width: 1.0;"/><text fill="#000000" font-family="sans-serif" font-size="11" lengthAdjust="spacingAndGlyphs" textLength="78" x="223.5" y="266.2104">update(): void</text></a><!--MD5=[f299b650506ae904504709ee1bbc5eee]
class pwr.sim.animal.ai.AiBehaviourWolf--><a href="AiBehaviourWolf.html" target="_top" title="AiBehaviourWolf.html" xlink:actuate="onRequest" xlink:href="AiBehaviourWolf.html" xlink:show="new" xlink:title="AiBehaviourWolf.html" xlink:type="simple"><rect fill="#FEFECE" filter="url(#f3u1rtupa8sag)" height="60.8047" id="pwr.sim.animal.ai.AiBehaviourWolf" style="stroke: #A80036; stroke-width: 1.5;" width="131" x="399.5" y="212"/><ellipse cx="414.5" cy="228" fill="#ADD1B2" rx="11" ry="11" style="stroke: #A80036; stroke-width: 1.0;"/><path d="M417.4688,233.6406 Q416.8906,233.9375 416.25,234.0781 Q415.6094,234.2344 414.9063,234.2344 Q412.4063,234.2344 411.0781,232.5938 Q409.7656,230.9375 409.7656,227.8125 Q409.7656,224.6875 411.0781,223.0313 Q412.4063,221.375 414.9063,221.375 Q415.6094,221.375 416.25,221.5313 Q416.9063,221.6875 417.4688,221.9844 L417.4688,224.7031 Q416.8438,224.125 416.25,223.8594 Q415.6563,223.5781 415.0313,223.5781 Q413.6875,223.5781 413,224.6563 Q412.3125,225.7188 412.3125,227.8125 Q412.3125,229.9063 413,230.9844 Q413.6875,232.0469 415.0313,232.0469 Q415.6563,232.0469 416.25,231.7813 Q416.8438,231.5 417.4688,230.9219 L417.4688,233.6406 Z "/><text fill="#000000" font-family="sans-serif" font-size="12" lengthAdjust="spacingAndGlyphs" textLength="99" x="428.5" y="232.1543">AiBehaviourWolf</text><line style="stroke: #A80036; stroke-width: 1.5;" x1="400.5" x2="529.5" y1="244" y2="244"/><line style="stroke: #A80036; stroke-width: 1.5;" x1="400.5" x2="529.5" y1="252" y2="252"/><ellipse cx="410.5" cy="263" fill="#84BE84" rx="3" ry="3" style="stroke: #038048; stroke-width: 1.0;"/><text fill="#000000" font-family="sans-serif" font-size="11" lengthAdjust="spacingAndGlyphs" textLength="78" x="419.5" y="266.2104">update(): void</text></a><!--MD5=[903a8be7c906695e3ea777a9599aedcd]
class pwr.sim.animal.ai.AiBehaviourHippo--><a href="AiBehaviourHippo.html" target="_top" title="AiBehaviourHippo.html" xlink:actuate="onRequest" xlink:href="AiBehaviourHippo.html" xlink:show="new" xlink:title="AiBehaviourHippo.html" xlink:type="simple"><rect fill="#FEFECE" filter="url(#f3u1rtupa8sag)" height="60.8047" id="pwr.sim.animal.ai.AiBehaviourHippo" style="stroke: #A80036; stroke-width: 1.5;" width="141" x="565.5" y="212"/><ellipse cx="580.5" cy="228" fill="#ADD1B2" rx="11" ry="11" style="stroke: #A80036; stroke-width: 1.0;"/><path d="M583.4688,233.6406 Q582.8906,233.9375 582.25,234.0781 Q581.6094,234.2344 580.9063,234.2344 Q578.4063,234.2344 577.0781,232.5938 Q575.7656,230.9375 575.7656,227.8125 Q575.7656,224.6875 577.0781,223.0313 Q578.4063,221.375 580.9063,221.375 Q581.6094,221.375 582.25,221.5313 Q582.9063,221.6875 583.4688,221.9844 L583.4688,224.7031 Q582.8438,224.125 582.25,223.8594 Q581.6563,223.5781 581.0313,223.5781 Q579.6875,223.5781 579,224.6563 Q578.3125,225.7188 578.3125,227.8125 Q578.3125,229.9063 579,230.9844 Q579.6875,232.0469 581.0313,232.0469 Q581.6563,232.0469 582.25,231.7813 Q582.8438,231.5 583.4688,230.9219 L583.4688,233.6406 Z "/><text fill="#000000" font-family="sans-serif" font-size="12" lengthAdjust="spacingAndGlyphs" textLength="109" x="594.5" y="232.1543">AiBehaviourHippo</text><line style="stroke: #A80036; stroke-width: 1.5;" x1="566.5" x2="705.5" y1="244" y2="244"/><line style="stroke: #A80036; stroke-width: 1.5;" x1="566.5" x2="705.5" y1="252" y2="252"/><ellipse cx="576.5" cy="263" fill="#84BE84" rx="3" ry="3" style="stroke: #038048; stroke-width: 1.0;"/><text fill="#000000" font-family="sans-serif" font-size="11" lengthAdjust="spacingAndGlyphs" textLength="78" x="585.5" y="266.2104">update(): void</text></a><!--MD5=[1325c757bf5b1e182acfce8f4a0a4ccf]
class pwr.sim.animal.ai.AiBehaviourCrocodile--><a href="AiBehaviourCrocodile.html" target="_top" title="AiBehaviourCrocodile.html" xlink:actuate="onRequest" xlink:href="AiBehaviourCrocodile.html" xlink:show="new" xlink:title="AiBehaviourCrocodile.html" xlink:type="simple"><rect fill="#FEFECE" filter="url(#f3u1rtupa8sag)" height="60.8047" id="pwr.sim.animal.ai.AiBehaviourCrocodile" style="stroke: #A80036; stroke-width: 1.5;" width="163" x="741.5" y="212"/><ellipse cx="756.5" cy="228" fill="#ADD1B2" rx="11" ry="11" style="stroke: #A80036; stroke-width: 1.0;"/><path d="M759.4688,233.6406 Q758.8906,233.9375 758.25,234.0781 Q757.6094,234.2344 756.9063,234.2344 Q754.4063,234.2344 753.0781,232.5938 Q751.7656,230.9375 751.7656,227.8125 Q751.7656,224.6875 753.0781,223.0313 Q754.4063,221.375 756.9063,221.375 Q757.6094,221.375 758.25,221.5313 Q758.9063,221.6875 759.4688,221.9844 L759.4688,224.7031 Q758.8438,224.125 758.25,223.8594 Q757.6563,223.5781 757.0313,223.5781 Q755.6875,223.5781 755,224.6563 Q754.3125,225.7188 754.3125,227.8125 Q754.3125,229.9063 755,230.9844 Q755.6875,232.0469 757.0313,232.0469 Q757.6563,232.0469 758.25,231.7813 Q758.8438,231.5 759.4688,230.9219 L759.4688,233.6406 Z "/><text fill="#000000" font-family="sans-serif" font-size="12" lengthAdjust="spacingAndGlyphs" textLength="131" x="770.5" y="232.1543">AiBehaviourCrocodile</text><line style="stroke: #A80036; stroke-width: 1.5;" x1="742.5" x2="903.5" y1="244" y2="244"/><line style="stroke: #A80036; stroke-width: 1.5;" x1="742.5" x2="903.5" y1="252" y2="252"/><ellipse cx="752.5" cy="263" fill="#84BE84" rx="3" ry="3" style="stroke: #038048; stroke-width: 1.0;"/><text fill="#000000" font-family="sans-serif" font-size="11" lengthAdjust="spacingAndGlyphs" textLength="78" x="761.5" y="266.2104">update(): void</text></a><!--MD5=[af772f8550f9215bd32b0d137f557a72]
class pwr.sim.animal.ai.state.IAiState--><rect fill="#FEFECE" filter="url(#f3u1rtupa8sag)" height="48" id="pwr.sim.animal.ai.state.IAiState" style="stroke: #A80036; stroke-width: 1.5;" width="80" x="961" y="218.5"/><ellipse cx="976" cy="234.5" fill="#ADD1B2" rx="11" ry="11" style="stroke: #A80036; stroke-width: 1.0;"/><path d="M978.9688,240.1406 Q978.3906,240.4375 977.75,240.5781 Q977.1094,240.7344 976.4063,240.7344 Q973.9063,240.7344 972.5781,239.0938 Q971.2656,237.4375 971.2656,234.3125 Q971.2656,231.1875 972.5781,229.5313 Q973.9063,227.875 976.4063,227.875 Q977.1094,227.875 977.75,228.0313 Q978.4063,228.1875 978.9688,228.4844 L978.9688,231.2031 Q978.3438,230.625 977.75,230.3594 Q977.1563,230.0781 976.5313,230.0781 Q975.1875,230.0781 974.5,231.1563 Q973.8125,232.2188 973.8125,234.3125 Q973.8125,236.4063 974.5,237.4844 Q975.1875,238.5469 976.5313,238.5469 Q977.1563,238.5469 977.75,238.2813 Q978.3438,238 978.9688,237.4219 L978.9688,240.1406 Z "/><text fill="#000000" font-family="sans-serif" font-size="12" lengthAdjust="spacingAndGlyphs" textLength="48" x="990" y="238.6543">IAiState</text><line style="stroke: #A80036; stroke-width: 1.5;" x1="962" x2="1040" y1="250.5" y2="250.5"/><line style="stroke: #A80036; stroke-width: 1.5;" x1="962" x2="1040" y1="258.5" y2="258.5"/><!--MD5=[f89593c85b11aba45edeb6d020480217]
reverse link pwr.sim.animal.ai.AiBehaviour to pwr.sim.animal.ai.AiBehaviourLion--><path d="M478.23,98.24 C402.22,107.96 281.04,129.63 186,175.5 C166.93,184.7 148.25,198.96 133.45,211.86 " fill="none" id="pwr.sim.animal.ai.AiBehaviour&lt;-pwr.sim.animal.ai.AiBehaviourLion" style="stroke: #A80036; stroke-width: 1.0;"/><polygon fill="none" points="477.72,91.25,498.42,95.81,479.4,105.15,477.72,91.25" style="stroke: #A80036; stroke-width: 1.0;"/><!--MD5=[849702cc23b915e2ea5e20e452e24f18]
link pwr.sim.animal.ai.AiBehaviour to pwr.sim.animal.ai.state.IAiState--><path d="M603.81,95.34 C677.99,103.1 815.76,123.73 921,175.5 C940.94,185.31 960.24,200.99 974.89,214.62 " fill="none" id="pwr.sim.animal.ai.AiBehaviour-&gt;pwr.sim.animal.ai.state.IAiState" style="stroke: #A80036; stroke-width: 1.0;"/><polygon fill="#A80036" points="978.9,218.4,975.0877,209.3189,975.259,214.9732,969.6047,215.1445,978.9,218.4" style="stroke: #A80036; stroke-width: 1.0;"/><text fill="#000000" font-family="sans-serif" font-size="13" lengthAdjust="spacingAndGlyphs" textLength="81" x="903" y="163.5669">currentState</text><text fill="#000000" font-family="sans-serif" font-size="13" lengthAdjust="spacingAndGlyphs" textLength="7" x="965.34" y="207.3864">*</text><!--MD5=[32f45c43ce194b9f080a026255792c2e]
reverse link pwr.sim.animal.ai.AiBehaviour to pwr.sim.animal.ai.AiBehaviourAntelope--><path d="M480.01,123.97 C449.38,138.84 413.44,157.16 382,175.5 C363.04,186.56 342.81,199.91 325.68,211.69 " fill="none" id="pwr.sim.animal.ai.AiBehaviour&lt;-pwr.sim.animal.ai.AiBehaviourAntelope" style="stroke: #A80036; stroke-width: 1.0;"/><polygon fill="none" points="477.25,117.53,498.31,115.19,483.3,130.15,477.25,117.53" style="stroke: #A80036; stroke-width: 1.0;"/><!--MD5=[d876eacae10eebd1d6b9ca00e130e90c]
reverse link pwr.sim.animal.ai.AiBehaviour to pwr.sim.animal.ai.AiBehaviourWolf--><path d="M523.89,138.45 C510.15,162.48 493.9,190.92 481.96,211.83 " fill="none" id="pwr.sim.animal.ai.AiBehaviour&lt;-pwr.sim.animal.ai.AiBehaviourWolf" style="stroke: #A80036; stroke-width: 1.0;"/><polygon fill="none" points="518.01,134.63,534.01,120.73,530.16,141.57,518.01,134.63" style="stroke: #A80036; stroke-width: 1.0;"/><!--MD5=[f57bb93bdb1b2b9f5c3d897556f79ade]
reverse link pwr.sim.animal.ai.AiBehaviour to pwr.sim.animal.ai.AiBehaviourHippo--><path d="M577.8,138.45 C591.37,162.48 607.43,190.92 619.24,211.83 " fill="none" id="pwr.sim.animal.ai.AiBehaviour&lt;-pwr.sim.animal.ai.AiBehaviourHippo" style="stroke: #A80036; stroke-width: 1.0;"/><polygon fill="none" points="571.53,141.59,567.79,120.73,583.72,134.71,571.53,141.59" style="stroke: #A80036; stroke-width: 1.0;"/><!--MD5=[c6df41c55a3516ff09828cd63cf25717]
reverse link pwr.sim.animal.ai.AiBehaviour to pwr.sim.animal.ai.AiBehaviourCrocodile--><path d="M622.19,123.14 C653.87,138.11 691.32,156.74 724,175.5 C743.35,186.61 763.99,200.09 781.39,211.97 " fill="none" id="pwr.sim.animal.ai.AiBehaviour&lt;-pwr.sim.animal.ai.AiBehaviourCrocodile" style="stroke: #A80036; stroke-width: 1.0;"/><polygon fill="none" points="618.96,129.36,603.8,114.55,624.88,116.67,618.96,129.36" style="stroke: #A80036; stroke-width: 1.0;"/><text fill="#888888" font-family="sans-serif" font-size="10" lengthAdjust="spacingAndGlyphs" textLength="186" x="495" y="324.2822">UMLDoclet 2.0.9, PlantUML 1.2020.08</text><!--MD5=[3d4a3d4a8194a0558f80b29675f8c4a1]
@startuml
    namespace pwr.sim.animal.ai {

        class AiBehaviourLion [[AiBehaviourLion.html]] {
            +update(): void
        }

        abstract class AiBehaviour [[AiBehaviour.html]] {
            {abstract} +update(): void
        }

        class AiBehaviourAntelope [[AiBehaviourAntelope.html]] {
            +update(): void
        }

        class AiBehaviourWolf [[AiBehaviourWolf.html]] {
            +update(): void
        }

        class AiBehaviourHippo [[AiBehaviourHippo.html]] {
            +update(): void
        }

        class AiBehaviourCrocodile [[AiBehaviourCrocodile.html]] {
            +update(): void
        }

        AiBehaviour <|- - AiBehaviourLion
        AiBehaviour - -> "*" pwr.sim.animal.ai.state.IAiState: currentState
        AiBehaviour <|- - AiBehaviourAntelope
        AiBehaviour <|- - AiBehaviourWolf
        AiBehaviour <|- - AiBehaviourHippo
        AiBehaviour <|- - AiBehaviourCrocodile
    }

    center footer UMLDoclet 2.0.9, PlantUML 1.2020.08
@enduml

PlantUML version 1.2020.08(Sun Apr 26 16:08:22 CEST 2020)
(APACHE source distribution)
Java Runtime: OpenJDK Runtime Environment
JVM: OpenJDK 64-Bit Server VM
Java Version: 11.0.7+10-post-Ubuntu-3ubuntu1
Operating System: Linux
Default Encoding: UTF-8
Language: en
Country: GB
--></g></svg>