<?xml version="1.0" encoding="UTF-8" standalone="no"?><svg xmlns="http://www.w3.org/2000/svg" xmlns:xlink="http://www.w3.org/1999/xlink" contentScriptType="application/ecmascript" contentStyleType="text/css" height="394px" preserveAspectRatio="none" style="width:754px;height:394px;" version="1.1" viewBox="0 0 754 394" width="754px" zoomAndPan="magnify"><defs><filter height="300%" id="fguaogc3begsc" width="300%" x="-1" y="-1"><feGaussianBlur result="blurOut" stdDeviation="2.0"/><feColorMatrix in="blurOut" result="blurOut2" type="matrix" values="0 0 0 0 0 0 0 0 0 0 0 0 0 0 0 0 0 0 .4 0"/><feOffset dx="4.0" dy="4.0" in="blurOut2" result="blurOut3"/><feBlend in="SourceGraphic" in2="blurOut3" mode="normal"/></filter></defs><g><!--MD5=[38d21fd4d824cca984a032be1183e02d]
cluster pwr.sim.animal--><polygon fill="#FFFFFF" filter="url(#fguaogc3begsc)" points="22,24,146,24,153,46.2969,556,46.2969,556,346,22,346,22,24" style="stroke: #000000; stroke-width: 1.5;"/><line style="stroke: #000000; stroke-width: 1.5;" x1="22" x2="153" y1="46.2969" y2="46.2969"/><text fill="#000000" font-family="sans-serif" font-size="14" font-weight="bold" lengthAdjust="spacingAndGlyphs" textLength="118" x="26" y="38.9951">pwr.sim.animal</text><!--MD5=[cb8a12caddea0e4f4a4443ac73e0810b]
cluster pwr.sim.animal.ai--><polygon fill="#FFFFFF" filter="url(#fguaogc3begsc)" points="580,247,722,247,729,269.2969,732,269.2969,732,346,580,346,580,247" style="stroke: #000000; stroke-width: 1.5;"/><line style="stroke: #000000; stroke-width: 1.5;" x1="580" x2="729" y1="269.2969" y2="269.2969"/><text fill="#000000" font-family="sans-serif" font-size="14" font-weight="bold" lengthAdjust="spacingAndGlyphs" textLength="136" x="584" y="261.9951">pwr.sim.animal.ai</text><!--MD5=[c3d732d9f16640c78ebd86f186b6dc1a]
class pwr.sim.animal.Animal--><a href="Animal.html" target="_top" title="Animal.html" xlink:actuate="onRequest" xlink:href="Animal.html" xlink:show="new" xlink:title="Animal.html" xlink:type="simple"><rect fill="#FEFECE" filter="url(#fguaogc3begsc)" height="124.8281" id="pwr.sim.animal.Animal" style="stroke: #A80036; stroke-width: 1.5;" width="139" x="244.5" y="59"/><ellipse cx="289.25" cy="75" fill="#A9DCDF" rx="11" ry="11" style="stroke: #A80036; stroke-width: 1.0;"/><path d="M289.3594,70.3438 L288.2031,75.4219 L290.5313,75.4219 L289.3594,70.3438 Z M287.875,68.1094 L290.8594,68.1094 L294.2188,80.5 L291.7656,80.5 L291,77.4375 L287.7188,77.4375 L286.9688,80.5 L284.5313,80.5 L287.875,68.1094 Z "/><text fill="#000000" font-family="sans-serif" font-size="12" font-style="italic" lengthAdjust="spacingAndGlyphs" textLength="41" x="309.75" y="79.1543">Animal</text><line style="stroke: #A80036; stroke-width: 1.5;" x1="245.5" x2="382.5" y1="91" y2="91"/><rect fill="none" height="6" style="stroke: #C82930; stroke-width: 1.0;" width="6" x="252.5" y="99"/><text fill="#000000" font-family="sans-serif" font-size="11" lengthAdjust="spacingAndGlyphs" textLength="57" x="264.5" y="105.2104">health: int</text><rect fill="none" height="6" style="stroke: #C82930; stroke-width: 1.0;" width="6" x="252.5" y="111.8047"/><text fill="#000000" font-family="sans-serif" font-size="11" lengthAdjust="spacingAndGlyphs" textLength="28" x="264.5" y="118.0151">x: int</text><rect fill="none" height="6" style="stroke: #C82930; stroke-width: 1.0;" width="6" x="252.5" y="124.6094"/><text fill="#000000" font-family="sans-serif" font-size="11" lengthAdjust="spacingAndGlyphs" textLength="28" x="264.5" y="130.8198">y: int</text><line style="stroke: #A80036; stroke-width: 1.5;" x1="245.5" x2="382.5" y1="137.4141" y2="137.4141"/><rect fill="#F24D5C" height="6" style="stroke: #C82930; stroke-width: 1.0;" width="6" x="252.5" y="145.4141"/><text fill="#000000" font-family="sans-serif" font-size="11" lengthAdjust="spacingAndGlyphs" textLength="46" x="264.5" y="151.6245">Animal()</text><ellipse cx="255.5" cy="161.2188" fill="#84BE84" rx="3" ry="3" style="stroke: #038048; stroke-width: 1.0;"/><text fill="#000000" font-family="sans-serif" font-size="11" lengthAdjust="spacingAndGlyphs" textLength="113" x="264.5" y="164.4292">Animal(AiBehaviour)</text><ellipse cx="255.5" cy="174.0234" fill="#84BE84" rx="3" ry="3" style="stroke: #038048; stroke-width: 1.0;"/><text fill="#000000" font-family="sans-serif" font-size="11" lengthAdjust="spacingAndGlyphs" textLength="78" x="264.5" y="177.2339">update(): void</text></a><!--MD5=[ae591f3673b39f6f38258875ac411879]
class pwr.sim.animal.Lion--><a href="Lion.html" target="_top" title="Lion.html" xlink:actuate="onRequest" xlink:href="Lion.html" xlink:show="new" xlink:title="Lion.html" xlink:type="simple"><rect fill="#FEFECE" filter="url(#fguaogc3begsc)" height="48" id="pwr.sim.animal.Lion" style="stroke: #A80036; stroke-width: 1.5;" width="57" x="38.5" y="282"/><ellipse cx="53.5" cy="298" fill="#ADD1B2" rx="11" ry="11" style="stroke: #A80036; stroke-width: 1.0;"/><path d="M56.4688,303.6406 Q55.8906,303.9375 55.25,304.0781 Q54.6094,304.2344 53.9063,304.2344 Q51.4063,304.2344 50.0781,302.5938 Q48.7656,300.9375 48.7656,297.8125 Q48.7656,294.6875 50.0781,293.0313 Q51.4063,291.375 53.9063,291.375 Q54.6094,291.375 55.25,291.5313 Q55.9063,291.6875 56.4688,291.9844 L56.4688,294.7031 Q55.8438,294.125 55.25,293.8594 Q54.6563,293.5781 54.0313,293.5781 Q52.6875,293.5781 52,294.6563 Q51.3125,295.7188 51.3125,297.8125 Q51.3125,299.9063 52,300.9844 Q52.6875,302.0469 54.0313,302.0469 Q54.6563,302.0469 55.25,301.7813 Q55.8438,301.5 56.4688,300.9219 L56.4688,303.6406 Z "/><text fill="#000000" font-family="sans-serif" font-size="12" lengthAdjust="spacingAndGlyphs" textLength="25" x="67.5" y="302.1543">Lion</text><line style="stroke: #A80036; stroke-width: 1.5;" x1="39.5" x2="94.5" y1="314" y2="314"/><line style="stroke: #A80036; stroke-width: 1.5;" x1="39.5" x2="94.5" y1="322" y2="322"/></a><!--MD5=[51044fa7bd27f700e7b14792f0478e8b]
class pwr.sim.animal.Wolf--><a href="Wolf.html" target="_top" title="Wolf.html" xlink:actuate="onRequest" xlink:href="Wolf.html" xlink:show="new" xlink:title="Wolf.html" xlink:type="simple"><rect fill="#FEFECE" filter="url(#fguaogc3begsc)" height="48" id="pwr.sim.animal.Wolf" style="stroke: #A80036; stroke-width: 1.5;" width="58" x="131" y="282"/><ellipse cx="146" cy="298" fill="#ADD1B2" rx="11" ry="11" style="stroke: #A80036; stroke-width: 1.0;"/><path d="M148.9688,303.6406 Q148.3906,303.9375 147.75,304.0781 Q147.1094,304.2344 146.4063,304.2344 Q143.9063,304.2344 142.5781,302.5938 Q141.2656,300.9375 141.2656,297.8125 Q141.2656,294.6875 142.5781,293.0313 Q143.9063,291.375 146.4063,291.375 Q147.1094,291.375 147.75,291.5313 Q148.4063,291.6875 148.9688,291.9844 L148.9688,294.7031 Q148.3438,294.125 147.75,293.8594 Q147.1563,293.5781 146.5313,293.5781 Q145.1875,293.5781 144.5,294.6563 Q143.8125,295.7188 143.8125,297.8125 Q143.8125,299.9063 144.5,300.9844 Q145.1875,302.0469 146.5313,302.0469 Q147.1563,302.0469 147.75,301.7813 Q148.3438,301.5 148.9688,300.9219 L148.9688,303.6406 Z "/><text fill="#000000" font-family="sans-serif" font-size="12" lengthAdjust="spacingAndGlyphs" textLength="26" x="160" y="302.1543">Wolf</text><line style="stroke: #A80036; stroke-width: 1.5;" x1="132" x2="188" y1="314" y2="314"/><line style="stroke: #A80036; stroke-width: 1.5;" x1="132" x2="188" y1="322" y2="322"/></a><!--MD5=[0d9c5885e47712ba48fdc187dade87ba]
class pwr.sim.animal.Hippo--><a href="Hippo.html" target="_top" title="Hippo.html" xlink:actuate="onRequest" xlink:href="Hippo.html" xlink:show="new" xlink:title="Hippo.html" xlink:type="simple"><rect fill="#FEFECE" filter="url(#fguaogc3begsc)" height="48" id="pwr.sim.animal.Hippo" style="stroke: #A80036; stroke-width: 1.5;" width="68" x="224" y="282"/><ellipse cx="239" cy="298" fill="#ADD1B2" rx="11" ry="11" style="stroke: #A80036; stroke-width: 1.0;"/><path d="M241.9688,303.6406 Q241.3906,303.9375 240.75,304.0781 Q240.1094,304.2344 239.4063,304.2344 Q236.9063,304.2344 235.5781,302.5938 Q234.2656,300.9375 234.2656,297.8125 Q234.2656,294.6875 235.5781,293.0313 Q236.9063,291.375 239.4063,291.375 Q240.1094,291.375 240.75,291.5313 Q241.4063,291.6875 241.9688,291.9844 L241.9688,294.7031 Q241.3438,294.125 240.75,293.8594 Q240.1563,293.5781 239.5313,293.5781 Q238.1875,293.5781 237.5,294.6563 Q236.8125,295.7188 236.8125,297.8125 Q236.8125,299.9063 237.5,300.9844 Q238.1875,302.0469 239.5313,302.0469 Q240.1563,302.0469 240.75,301.7813 Q241.3438,301.5 241.9688,300.9219 L241.9688,303.6406 Z "/><text fill="#000000" font-family="sans-serif" font-size="12" lengthAdjust="spacingAndGlyphs" textLength="36" x="253" y="302.1543">Hippo</text><line style="stroke: #A80036; stroke-width: 1.5;" x1="225" x2="291" y1="314" y2="314"/><line style="stroke: #A80036; stroke-width: 1.5;" x1="225" x2="291" y1="322" y2="322"/></a><!--MD5=[42e61e67efa47235d09441cf7bdd044b]
class pwr.sim.animal.Antelope--><a href="Antelope.html" target="_top" title="Antelope.html" xlink:actuate="onRequest" xlink:href="Antelope.html" xlink:show="new" xlink:title="Antelope.html" xlink:type="simple"><rect fill="#FEFECE" filter="url(#fguaogc3begsc)" height="48" id="pwr.sim.animal.Antelope" style="stroke: #A80036; stroke-width: 1.5;" width="88" x="327" y="282"/><ellipse cx="342" cy="298" fill="#ADD1B2" rx="11" ry="11" style="stroke: #A80036; stroke-width: 1.0;"/><path d="M344.9688,303.6406 Q344.3906,303.9375 343.75,304.0781 Q343.1094,304.2344 342.4063,304.2344 Q339.9063,304.2344 338.5781,302.5938 Q337.2656,300.9375 337.2656,297.8125 Q337.2656,294.6875 338.5781,293.0313 Q339.9063,291.375 342.4063,291.375 Q343.1094,291.375 343.75,291.5313 Q344.4063,291.6875 344.9688,291.9844 L344.9688,294.7031 Q344.3438,294.125 343.75,293.8594 Q343.1563,293.5781 342.5313,293.5781 Q341.1875,293.5781 340.5,294.6563 Q339.8125,295.7188 339.8125,297.8125 Q339.8125,299.9063 340.5,300.9844 Q341.1875,302.0469 342.5313,302.0469 Q343.1563,302.0469 343.75,301.7813 Q344.3438,301.5 344.9688,300.9219 L344.9688,303.6406 Z "/><text fill="#000000" font-family="sans-serif" font-size="12" lengthAdjust="spacingAndGlyphs" textLength="56" x="356" y="302.1543">Antelope</text><line style="stroke: #A80036; stroke-width: 1.5;" x1="328" x2="414" y1="314" y2="314"/><line style="stroke: #A80036; stroke-width: 1.5;" x1="328" x2="414" y1="322" y2="322"/></a><!--MD5=[b1b8f6298c44d0173040989d99b205cc]
class pwr.sim.animal.Crocodile--><a href="Crocodile.html" target="_top" title="Crocodile.html" xlink:actuate="onRequest" xlink:href="Crocodile.html" xlink:show="new" xlink:title="Crocodile.html" xlink:type="simple"><rect fill="#FEFECE" filter="url(#fguaogc3begsc)" height="48" id="pwr.sim.animal.Crocodile" style="stroke: #A80036; stroke-width: 1.5;" width="90" x="450" y="282"/><ellipse cx="465" cy="298" fill="#ADD1B2" rx="11" ry="11" style="stroke: #A80036; stroke-width: 1.0;"/><path d="M467.9688,303.6406 Q467.3906,303.9375 466.75,304.0781 Q466.1094,304.2344 465.4063,304.2344 Q462.9063,304.2344 461.5781,302.5938 Q460.2656,300.9375 460.2656,297.8125 Q460.2656,294.6875 461.5781,293.0313 Q462.9063,291.375 465.4063,291.375 Q466.1094,291.375 466.75,291.5313 Q467.4063,291.6875 467.9688,291.9844 L467.9688,294.7031 Q467.3438,294.125 466.75,293.8594 Q466.1563,293.5781 465.5313,293.5781 Q464.1875,293.5781 463.5,294.6563 Q462.8125,295.7188 462.8125,297.8125 Q462.8125,299.9063 463.5,300.9844 Q464.1875,302.0469 465.5313,302.0469 Q466.1563,302.0469 466.75,301.7813 Q467.3438,301.5 467.9688,300.9219 L467.9688,303.6406 Z "/><text fill="#000000" font-family="sans-serif" font-size="12" lengthAdjust="spacingAndGlyphs" textLength="58" x="479" y="302.1543">Crocodile</text><line style="stroke: #A80036; stroke-width: 1.5;" x1="451" x2="539" y1="314" y2="314"/><line style="stroke: #A80036; stroke-width: 1.5;" x1="451" x2="539" y1="322" y2="322"/></a><!--MD5=[ef2616cc0edc2f56e121b970d24f922a]
class pwr.sim.animal.ai.AiBehaviour--><rect fill="#FEFECE" filter="url(#fguaogc3begsc)" height="48" id="pwr.sim.animal.ai.AiBehaviour" style="stroke: #A80036; stroke-width: 1.5;" width="105" x="596.5" y="282"/><ellipse cx="611.5" cy="298" fill="#ADD1B2" rx="11" ry="11" style="stroke: #A80036; stroke-width: 1.0;"/><path d="M614.4688,303.6406 Q613.8906,303.9375 613.25,304.0781 Q612.6094,304.2344 611.9063,304.2344 Q609.4063,304.2344 608.0781,302.5938 Q606.7656,300.9375 606.7656,297.8125 Q606.7656,294.6875 608.0781,293.0313 Q609.4063,291.375 611.9063,291.375 Q612.6094,291.375 613.25,291.5313 Q613.9063,291.6875 614.4688,291.9844 L614.4688,294.7031 Q613.8438,294.125 613.25,293.8594 Q612.6563,293.5781 612.0313,293.5781 Q610.6875,293.5781 610,294.6563 Q609.3125,295.7188 609.3125,297.8125 Q609.3125,299.9063 610,300.9844 Q610.6875,302.0469 612.0313,302.0469 Q612.6563,302.0469 613.25,301.7813 Q613.8438,301.5 614.4688,300.9219 L614.4688,303.6406 Z "/><text fill="#000000" font-family="sans-serif" font-size="12" lengthAdjust="spacingAndGlyphs" textLength="73" x="625.5" y="302.1543">AiBehaviour</text><line style="stroke: #A80036; stroke-width: 1.5;" x1="597.5" x2="700.5" y1="314" y2="314"/><line style="stroke: #A80036; stroke-width: 1.5;" x1="597.5" x2="700.5" y1="322" y2="322"/><!--MD5=[52d6a25f107e5990b33b9f5740933ce2]
link pwr.sim.animal.Animal to pwr.sim.animal.ai.AiBehaviour--><path d="M383.66,152.27 C432.91,174.21 499.87,205.89 556,239 C576.28,250.96 597.79,266.05 615.01,278.78 " fill="none" id="pwr.sim.animal.Animal-&gt;pwr.sim.animal.ai.AiBehaviour" style="stroke: #A80036; stroke-width: 1.0;"/><polygon fill="#A80036" points="619.29,281.97,614.4557,273.3893,615.278,278.986,609.6813,279.8084,619.29,281.97" style="stroke: #A80036; stroke-width: 1.0;"/><text fill="#000000" font-family="sans-serif" font-size="13" lengthAdjust="spacingAndGlyphs" textLength="75" x="538" y="227.0669">aiBehaviour</text><!--MD5=[0800056615779f0dd300cd144b3e14f7]
reverse link pwr.sim.animal.Animal to pwr.sim.animal.Lion--><path d="M226.37,163.1 C189.28,182.82 147.08,208.81 114,239 C100.49,251.33 88.58,268.15 80.13,281.73 " fill="none" id="pwr.sim.animal.Animal&lt;-pwr.sim.animal.Lion" style="stroke: #A80036; stroke-width: 1.0;"/><polygon fill="none" points="223.4,156.75,244.39,153.79,229.83,169.19,223.4,156.75" style="stroke: #A80036; stroke-width: 1.0;"/><!--MD5=[6c69e18a1baf2883ad8c1a9296ae8651]
reverse link pwr.sim.animal.Animal to pwr.sim.animal.Wolf--><path d="M241.15,199.14 C229.45,212.2 217.69,225.81 207,239 C195.84,252.77 184.28,268.98 175.42,281.88 " fill="none" id="pwr.sim.animal.Animal&lt;-pwr.sim.animal.Wolf" style="stroke: #A80036; stroke-width: 1.0;"/><polygon fill="none" points="236.16,194.22,254.78,184.11,246.52,203.63,236.16,194.22" style="stroke: #A80036; stroke-width: 1.0;"/><!--MD5=[aa43b6d8d15548c6030ab792b7b46440]
reverse link pwr.sim.animal.Animal to pwr.sim.animal.Hippo--><path d="M289.18,203.39 C280.44,231.86 271.29,261.69 265.18,281.61 " fill="none" id="pwr.sim.animal.Animal&lt;-pwr.sim.animal.Hippo" style="stroke: #A80036; stroke-width: 1.0;"/><polygon fill="none" points="282.56,201.1,295.12,184.03,295.94,205.21,282.56,201.1" style="stroke: #A80036; stroke-width: 1.0;"/><!--MD5=[f0ca4d8d7b91aca9404b4386d9ad3192]
reverse link pwr.sim.animal.Animal to pwr.sim.animal.Antelope--><path d="M339.26,203.39 C348.16,231.86 357.47,261.69 363.69,281.61 " fill="none" id="pwr.sim.animal.Animal&lt;-pwr.sim.animal.Antelope" style="stroke: #A80036; stroke-width: 1.0;"/><polygon fill="none" points="332.5,205.21,333.22,184.03,345.86,201.04,332.5,205.21" style="stroke: #A80036; stroke-width: 1.0;"/><!--MD5=[eb525c31fe53d0a7c54753579ebbab9c]
reverse link pwr.sim.animal.Animal to pwr.sim.animal.Crocodile--><path d="M392.63,198.56 C406.19,211.94 420.07,225.8 433,239 C446.75,253.04 461.86,269.1 473.71,281.87 " fill="none" id="pwr.sim.animal.Animal&lt;-pwr.sim.animal.Crocodile" style="stroke: #A80036; stroke-width: 1.0;"/><polygon fill="none" points="387.46,203.3,378.1,184.29,397.27,193.31,387.46,203.3" style="stroke: #A80036; stroke-width: 1.0;"/><text fill="#888888" font-family="sans-serif" font-size="10" lengthAdjust="spacingAndGlyphs" textLength="186" x="290" y="381.2822">UMLDoclet 2.0.9, PlantUML 1.2020.08</text><!--MD5=[497e02c9bb692dce79fbf1ecbce6d4ea]
@startuml
    namespace pwr.sim.animal {

        abstract class Animal [[Animal.html]] {
            -health: int
            -x: int
            -y: int
            -Animal()
            +Animal(AiBehaviour)
            +update(): void
        }

        class Lion [[Lion.html]]

        class Wolf [[Wolf.html]]

        class Hippo [[Hippo.html]]

        class Antelope [[Antelope.html]]

        class Crocodile [[Crocodile.html]]

        Animal - -> pwr.sim.animal.ai.AiBehaviour: aiBehaviour
        Animal <|- - Lion
        Animal <|- - Wolf
        Animal <|- - Hippo
        Animal <|- - Antelope
        Animal <|- - Crocodile
    }

    center footer UMLDoclet 2.0.9, PlantUML 1.2020.08
@enduml

PlantUML version 1.2020.08(Sun Apr 26 16:08:22 CEST 2020)
(APACHE source distribution)
Java Runtime: OpenJDK Runtime Environment
JVM: OpenJDK 64-Bit Server VM
Java Version: 11.0.7+10-post-Ubuntu-3ubuntu1
Operating System: Linux
Default Encoding: UTF-8
Language: en
Country: GB
--></g></svg>