<?xml version="1.0" encoding="UTF-8" standalone="no"?><svg xmlns="http://www.w3.org/2000/svg" xmlns:xlink="http://www.w3.org/1999/xlink" contentScriptType="application/ecmascript" contentStyleType="text/css" height="409px" preserveAspectRatio="none" style="width:436px;height:409px;" version="1.1" viewBox="0 0 436 409" width="436px" zoomAndPan="magnify"><defs><filter height="300%" id="f2el7skykqx80" width="300%" x="-1" y="-1"><feGaussianBlur result="blurOut" stdDeviation="2.0"/><feColorMatrix in="blurOut" result="blurOut2" type="matrix" values="0 0 0 0 0 0 0 0 0 0 0 0 0 0 0 0 0 0 .4 0"/><feOffset dx="4.0" dy="4.0" in="blurOut2" result="blurOut3"/><feBlend in="SourceGraphic" in2="blurOut3" mode="normal"/></filter></defs><g><!--MD5=[eb945461eba7eb248984bb62588b2b58]
cluster pwr.sim--><polygon fill="#FFFFFF" filter="url(#f2el7skykqx80)" points="22,24,91,24,98,46.2969,362,46.2969,362,213,22,213,22,24" style="stroke: #000000; stroke-width: 1.5;"/><line style="stroke: #000000; stroke-width: 1.5;" x1="22" x2="98" y1="46.2969" y2="46.2969"/><text fill="#000000" font-family="sans-serif" font-size="14" font-weight="bold" lengthAdjust="spacingAndGlyphs" textLength="63" x="26" y="38.9951">pwr.sim</text><!--MD5=[c2dcf61bf1b29a597783dba432290bbf]
cluster pwr.sim.tile--><polygon fill="#FFFFFF" filter="url(#f2el7skykqx80)" points="148,262,246,262,253,284.2969,256,284.2969,256,361,148,361,148,262" style="stroke: #000000; stroke-width: 1.5;"/><line style="stroke: #000000; stroke-width: 1.5;" x1="148" x2="253" y1="284.2969" y2="284.2969"/><text fill="#000000" font-family="sans-serif" font-size="14" font-weight="bold" lengthAdjust="spacingAndGlyphs" textLength="92" x="152" y="276.9951">pwr.sim.tile</text><!--MD5=[38d21fd4d824cca984a032be1183e02d]
cluster pwr.sim.animal--><polygon fill="#FFFFFF" filter="url(#f2el7skykqx80)" points="280,262,404,262,411,284.2969,414,284.2969,414,361,280,361,280,262" style="stroke: #000000; stroke-width: 1.5;"/><line style="stroke: #000000; stroke-width: 1.5;" x1="280" x2="411" y1="284.2969" y2="284.2969"/><text fill="#000000" font-family="sans-serif" font-size="14" font-weight="bold" lengthAdjust="spacingAndGlyphs" textLength="118" x="284" y="276.9951">pwr.sim.animal</text><!--MD5=[e0482b18df9ae4a1c0083229bf001a33]
class pwr.sim.World--><a href="World.html" target="_top" title="World.html" xlink:actuate="onRequest" xlink:href="World.html" xlink:show="new" xlink:title="World.html" xlink:type="simple"><rect fill="#FEFECE" filter="url(#f2el7skykqx80)" height="137.6328" id="pwr.sim.World" style="stroke: #A80036; stroke-width: 1.5;" width="137" x="208.5" y="59"/><ellipse cx="255.25" cy="75" fill="#ADD1B2" rx="11" ry="11" style="stroke: #A80036; stroke-width: 1.0;"/><path d="M258.2188,80.6406 Q257.6406,80.9375 257,81.0781 Q256.3594,81.2344 255.6563,81.2344 Q253.1563,81.2344 251.8281,79.5938 Q250.5156,77.9375 250.5156,74.8125 Q250.5156,71.6875 251.8281,70.0313 Q253.1563,68.375 255.6563,68.375 Q256.3594,68.375 257,68.5313 Q257.6563,68.6875 258.2188,68.9844 L258.2188,71.7031 Q257.5938,71.125 257,70.8594 Q256.4063,70.5781 255.7813,70.5781 Q254.4375,70.5781 253.75,71.6563 Q253.0625,72.7188 253.0625,74.8125 Q253.0625,76.9063 253.75,77.9844 Q254.4375,79.0469 255.7813,79.0469 Q256.4063,79.0469 257,78.7813 Q257.5938,78.5 258.2188,77.9219 L258.2188,80.6406 Z "/><text fill="#000000" font-family="sans-serif" font-size="12" lengthAdjust="spacingAndGlyphs" textLength="35" x="275.75" y="79.1543">World</text><line style="stroke: #A80036; stroke-width: 1.5;" x1="209.5" x2="344.5" y1="91" y2="91"/><rect fill="none" height="6" style="stroke: #C82930; stroke-width: 1.0;" width="6" x="216.5" y="99"/><text fill="#000000" font-family="sans-serif" font-size="11" lengthAdjust="spacingAndGlyphs" textLength="52" x="228.5" y="105.2104">width: int</text><rect fill="none" height="6" style="stroke: #C82930; stroke-width: 1.0;" width="6" x="216.5" y="111.8047"/><text fill="#000000" font-family="sans-serif" font-size="11" lengthAdjust="spacingAndGlyphs" textLength="57" x="228.5" y="118.0151">height: int</text><line style="stroke: #A80036; stroke-width: 1.5;" x1="209.5" x2="344.5" y1="124.6094" y2="124.6094"/><ellipse cx="219.5" cy="135.6094" fill="#84BE84" rx="3" ry="3" style="stroke: #038048; stroke-width: 1.0;"/><text fill="#000000" font-family="sans-serif" font-size="11" lengthAdjust="spacingAndGlyphs" textLength="111" x="228.5" y="138.8198">World(int, int, Tile[])</text><ellipse cx="219.5" cy="148.4141" fill="#84BE84" rx="3" ry="3" style="stroke: #038048; stroke-width: 1.0;"/><text fill="#000000" font-family="sans-serif" font-size="11" lengthAdjust="spacingAndGlyphs" textLength="73" x="228.5" y="151.6245">World(String)</text><ellipse cx="219.5" cy="161.2188" fill="#84BE84" rx="3" ry="3" style="stroke: #038048; stroke-width: 1.0;"/><text fill="#000000" font-family="sans-serif" font-size="11" lengthAdjust="spacingAndGlyphs" textLength="78" x="228.5" y="164.4292">update(): void</text><ellipse cx="219.5" cy="174.0234" fill="#84BE84" rx="3" ry="3" style="stroke: #038048; stroke-width: 1.0;"/><text fill="#000000" font-family="sans-serif" font-size="11" lengthAdjust="spacingAndGlyphs" textLength="102" x="228.5" y="177.2339">populate(int): void</text><ellipse cx="219.5" cy="186.8281" fill="#84BE84" rx="3" ry="3" style="stroke: #038048; stroke-width: 1.0;"/><text fill="#000000" font-family="sans-serif" font-size="11" lengthAdjust="spacingAndGlyphs" textLength="67" x="228.5" y="190.0386">draw(): void</text></a><!--MD5=[549ac8facc89d3c0e244f97ab8bb88ce]
class pwr.sim.App--><a href="App.html" target="_top" title="App.html" xlink:actuate="onRequest" xlink:href="App.html" xlink:show="new" xlink:title="App.html" xlink:type="simple"><rect fill="#FEFECE" filter="url(#f2el7skykqx80)" height="60.8047" id="pwr.sim.App" style="stroke: #A80036; stroke-width: 1.5;" width="135" x="38.5" y="97.5"/><ellipse cx="89.75" cy="113.5" fill="#ADD1B2" rx="11" ry="11" style="stroke: #A80036; stroke-width: 1.0;"/><path d="M92.7188,119.1406 Q92.1406,119.4375 91.5,119.5781 Q90.8594,119.7344 90.1563,119.7344 Q87.6563,119.7344 86.3281,118.0938 Q85.0156,116.4375 85.0156,113.3125 Q85.0156,110.1875 86.3281,108.5313 Q87.6563,106.875 90.1563,106.875 Q90.8594,106.875 91.5,107.0313 Q92.1563,107.1875 92.7188,107.4844 L92.7188,110.2031 Q92.0938,109.625 91.5,109.3594 Q90.9063,109.0781 90.2813,109.0781 Q88.9375,109.0781 88.25,110.1563 Q87.5625,111.2188 87.5625,113.3125 Q87.5625,115.4063 88.25,116.4844 Q88.9375,117.5469 90.2813,117.5469 Q90.9063,117.5469 91.5,117.2813 Q92.0938,117 92.7188,116.4219 L92.7188,119.1406 Z "/><text fill="#000000" font-family="sans-serif" font-size="12" lengthAdjust="spacingAndGlyphs" textLength="24" x="110.25" y="117.6543">App</text><line style="stroke: #A80036; stroke-width: 1.5;" x1="39.5" x2="172.5" y1="129.5" y2="129.5"/><line style="stroke: #A80036; stroke-width: 1.5;" x1="39.5" x2="172.5" y1="137.5" y2="137.5"/><ellipse cx="49.5" cy="148.5" fill="#84BE84" rx="3" ry="3" style="stroke: #038048; stroke-width: 1.0;"/><text fill="#000000" font-family="sans-serif" font-size="11" lengthAdjust="spacingAndGlyphs" text-decoration="underline" textLength="109" x="58.5" y="151.7104">main(String[]): void</text></a><!--MD5=[255d31fd1638d93d5cc60083b3595b03]
class pwr.sim.tile.Tile--><rect fill="#FEFECE" filter="url(#f2el7skykqx80)" height="48" id="pwr.sim.tile.Tile" style="stroke: #A80036; stroke-width: 1.5;" width="53" x="186.5" y="297"/><ellipse cx="201.5" cy="313" fill="#ADD1B2" rx="11" ry="11" style="stroke: #A80036; stroke-width: 1.0;"/><path d="M204.4688,318.6406 Q203.8906,318.9375 203.25,319.0781 Q202.6094,319.2344 201.9063,319.2344 Q199.4063,319.2344 198.0781,317.5938 Q196.7656,315.9375 196.7656,312.8125 Q196.7656,309.6875 198.0781,308.0313 Q199.4063,306.375 201.9063,306.375 Q202.6094,306.375 203.25,306.5313 Q203.9063,306.6875 204.4688,306.9844 L204.4688,309.7031 Q203.8438,309.125 203.25,308.8594 Q202.6563,308.5781 202.0313,308.5781 Q200.6875,308.5781 200,309.6563 Q199.3125,310.7188 199.3125,312.8125 Q199.3125,314.9063 200,315.9844 Q200.6875,317.0469 202.0313,317.0469 Q202.6563,317.0469 203.25,316.7813 Q203.8438,316.5 204.4688,315.9219 L204.4688,318.6406 Z "/><text fill="#000000" font-family="sans-serif" font-size="12" lengthAdjust="spacingAndGlyphs" textLength="21" x="215.5" y="317.1543">Tile</text><line style="stroke: #A80036; stroke-width: 1.5;" x1="187.5" x2="238.5" y1="329" y2="329"/><line style="stroke: #A80036; stroke-width: 1.5;" x1="187.5" x2="238.5" y1="337" y2="337"/><!--MD5=[c3d732d9f16640c78ebd86f186b6dc1a]
class pwr.sim.animal.Animal--><rect fill="#FEFECE" filter="url(#f2el7skykqx80)" height="48" id="pwr.sim.animal.Animal" style="stroke: #A80036; stroke-width: 1.5;" width="73" x="296.5" y="297"/><ellipse cx="311.5" cy="313" fill="#ADD1B2" rx="11" ry="11" style="stroke: #A80036; stroke-width: 1.0;"/><path d="M314.4688,318.6406 Q313.8906,318.9375 313.25,319.0781 Q312.6094,319.2344 311.9063,319.2344 Q309.4063,319.2344 308.0781,317.5938 Q306.7656,315.9375 306.7656,312.8125 Q306.7656,309.6875 308.0781,308.0313 Q309.4063,306.375 311.9063,306.375 Q312.6094,306.375 313.25,306.5313 Q313.9063,306.6875 314.4688,306.9844 L314.4688,309.7031 Q313.8438,309.125 313.25,308.8594 Q312.6563,308.5781 312.0313,308.5781 Q310.6875,308.5781 310,309.6563 Q309.3125,310.7188 309.3125,312.8125 Q309.3125,314.9063 310,315.9844 Q310.6875,317.0469 312.0313,317.0469 Q312.6563,317.0469 313.25,316.7813 Q313.8438,316.5 314.4688,315.9219 L314.4688,318.6406 Z "/><text fill="#000000" font-family="sans-serif" font-size="12" lengthAdjust="spacingAndGlyphs" textLength="41" x="325.5" y="317.1543">Animal</text><line style="stroke: #A80036; stroke-width: 1.5;" x1="297.5" x2="368.5" y1="329" y2="329"/><line style="stroke: #A80036; stroke-width: 1.5;" x1="297.5" x2="368.5" y1="337" y2="337"/><!--MD5=[af8e19ab388f7c598b04694d638f4929]
link pwr.sim.World to pwr.sim.tile.Tile--><path d="M254.17,197.15 C243.19,229.89 230.65,267.32 222.33,292.17 " fill="none" id="pwr.sim.World-&gt;pwr.sim.tile.Tile" style="stroke: #A80036; stroke-width: 1.0;"/><polygon fill="#A80036" points="220.72,296.97,227.3674,289.7028,222.3054,292.228,219.7802,287.1661,220.72,296.97" style="stroke: #A80036; stroke-width: 1.0;"/><text fill="#000000" font-family="sans-serif" font-size="13" lengthAdjust="spacingAndGlyphs" textLength="26" x="244" y="242.0669">tiles</text><text fill="#000000" font-family="sans-serif" font-size="13" lengthAdjust="spacingAndGlyphs" textLength="7" x="214.8014" y="285.9743">*</text><!--MD5=[bebff4904899ea4f952af4b7fcb9f442]
link pwr.sim.World to pwr.sim.animal.Animal--><path d="M296.98,197.15 C306.54,229.75 317.46,267.01 324.75,291.86 " fill="none" id="pwr.sim.World-&gt;pwr.sim.animal.Animal" style="stroke: #A80036; stroke-width: 1.0;"/><polygon fill="#A80036" points="326.25,296.97,327.57,287.21,324.85,292.17,319.89,289.45,326.25,296.97" style="stroke: #A80036; stroke-width: 1.0;"/><text fill="#000000" font-family="sans-serif" font-size="13" lengthAdjust="spacingAndGlyphs" textLength="50" x="311" y="242.0669">animals</text><text fill="#000000" font-family="sans-serif" font-size="13" lengthAdjust="spacingAndGlyphs" textLength="7" x="316.6234" y="285.9743">*</text><text fill="#888888" font-family="sans-serif" font-size="10" lengthAdjust="spacingAndGlyphs" textLength="186" x="131" y="396.2822">UMLDoclet 2.0.9, PlantUML 1.2020.08</text><!--MD5=[c4347e82349e6f72f87fa4a186b07aab]
@startuml
    namespace pwr.sim {

        class World [[World.html]] {
            -width: int
            -height: int
            +World(int, int, Tile[])
            +World(String)
            +update(): void
            +populate(int): void
            +draw(): void
        }

        class App [[App.html]] {
            {static} +main(String[]): void
        }

        World - -> "*" pwr.sim.tile.Tile: tiles
        World - -> "*" pwr.sim.animal.Animal: animals
    }

    center footer UMLDoclet 2.0.9, PlantUML 1.2020.08
@enduml

PlantUML version 1.2020.08(Sun Apr 26 16:08:22 CEST 2020)
(APACHE source distribution)
Java Runtime: OpenJDK Runtime Environment
JVM: OpenJDK 64-Bit Server VM
Java Version: 11.0.7+10-post-Ubuntu-3ubuntu1
Operating System: Linux
Default Encoding: UTF-8
Language: en
Country: GB
--></g></svg>