<?xml version="1.0" encoding="UTF-8" standalone="no"?><svg xmlns="http://www.w3.org/2000/svg" xmlns:xlink="http://www.w3.org/1999/xlink" contentScriptType="application/ecmascript" contentStyleType="text/css" height="305px" preserveAspectRatio="none" style="width:1033px;height:305px;" version="1.1" viewBox="0 0 1033 305" width="1033px" zoomAndPan="magnify"><defs><filter height="300%" id="fqwun962itw0g" width="300%" x="-1" y="-1"><feGaussianBlur result="blurOut" stdDeviation="2.0"/><feColorMatrix in="blurOut" result="blurOut2" type="matrix" values="0 0 0 0 0 0 0 0 0 0 0 0 0 0 0 0 0 0 .4 0"/><feOffset dx="4.0" dy="4.0" in="blurOut2" result="blurOut3"/><feBlend in="SourceGraphic" in2="blurOut3" mode="normal"/></filter></defs><g><!--MD5=[7eeeb206a6d334978b95fb0cfc669640]
cluster pwr.sim.animal.ai.state--><polygon fill="#FFFFFF" filter="url(#fqwun962itw0g)" points="22,24,209,24,216,46.2969,1011,46.2969,1011,257,22,257,22,24" style="stroke: #000000; stroke-width: 1.5;"/><line style="stroke: #000000; stroke-width: 1.5;" x1="22" x2="216" y1="46.2969" y2="46.2969"/><text fill="#000000" font-family="sans-serif" font-size="14" font-weight="bold" lengthAdjust="spacingAndGlyphs" textLength="181" x="26" y="38.9951">pwr.sim.animal.ai.state</text><!--MD5=[08aadd0f49c91bafe227b24a75895544]
class pwr.sim.animal.ai.state.AiStateEatCorpse--><a href="AiStateEatCorpse.html" target="_top" title="AiStateEatCorpse.html" xlink:actuate="onRequest" xlink:href="AiStateEatCorpse.html" xlink:show="new" xlink:title="AiStateEatCorpse.html" xlink:type="simple"><rect fill="#FEFECE" filter="url(#fqwun962itw0g)" height="60.8047" id="pwr.sim.animal.ai.state.AiStateEatCorpse" style="stroke: #A80036; stroke-width: 1.5;" width="142" x="38" y="180"/><ellipse cx="53" cy="196" fill="#ADD1B2" rx="11" ry="11" style="stroke: #A80036; stroke-width: 1.0;"/><path d="M55.9688,201.6406 Q55.3906,201.9375 54.75,202.0781 Q54.1094,202.2344 53.4063,202.2344 Q50.9063,202.2344 49.5781,200.5938 Q48.2656,198.9375 48.2656,195.8125 Q48.2656,192.6875 49.5781,191.0313 Q50.9063,189.375 53.4063,189.375 Q54.1094,189.375 54.75,189.5313 Q55.4063,189.6875 55.9688,189.9844 L55.9688,192.7031 Q55.3438,192.125 54.75,191.8594 Q54.1563,191.5781 53.5313,191.5781 Q52.1875,191.5781 51.5,192.6563 Q50.8125,193.7188 50.8125,195.8125 Q50.8125,197.9063 51.5,198.9844 Q52.1875,200.0469 53.5313,200.0469 Q54.1563,200.0469 54.75,199.7813 Q55.3438,199.5 55.9688,198.9219 L55.9688,201.6406 Z "/><text fill="#000000" font-family="sans-serif" font-size="12" lengthAdjust="spacingAndGlyphs" textLength="110" x="67" y="200.1543">AiStateEatCorpse</text><line style="stroke: #A80036; stroke-width: 1.5;" x1="39" x2="179" y1="212" y2="212"/><line style="stroke: #A80036; stroke-width: 1.5;" x1="39" x2="179" y1="220" y2="220"/><ellipse cx="49" cy="231" fill="#84BE84" rx="3" ry="3" style="stroke: #038048; stroke-width: 1.0;"/><text fill="#000000" font-family="sans-serif" font-size="11" lengthAdjust="spacingAndGlyphs" textLength="78" x="58" y="234.2104">update(): void</text></a><!--MD5=[c59dbee51b91129f0f8245b72bd2908b]
class pwr.sim.animal.ai.state.AiStateEatPlant--><a href="AiStateEatPlant.html" target="_top" title="AiStateEatPlant.html" xlink:actuate="onRequest" xlink:href="AiStateEatPlant.html" xlink:show="new" xlink:title="AiStateEatPlant.html" xlink:type="simple"><rect fill="#FEFECE" filter="url(#fqwun962itw0g)" height="60.8047" id="pwr.sim.animal.ai.state.AiStateEatPlant" style="stroke: #A80036; stroke-width: 1.5;" width="130" x="215" y="180"/><ellipse cx="230" cy="196" fill="#ADD1B2" rx="11" ry="11" style="stroke: #A80036; stroke-width: 1.0;"/><path d="M232.9688,201.6406 Q232.3906,201.9375 231.75,202.0781 Q231.1094,202.2344 230.4063,202.2344 Q227.9063,202.2344 226.5781,200.5938 Q225.2656,198.9375 225.2656,195.8125 Q225.2656,192.6875 226.5781,191.0313 Q227.9063,189.375 230.4063,189.375 Q231.1094,189.375 231.75,189.5313 Q232.4063,189.6875 232.9688,189.9844 L232.9688,192.7031 Q232.3438,192.125 231.75,191.8594 Q231.1563,191.5781 230.5313,191.5781 Q229.1875,191.5781 228.5,192.6563 Q227.8125,193.7188 227.8125,195.8125 Q227.8125,197.9063 228.5,198.9844 Q229.1875,200.0469 230.5313,200.0469 Q231.1563,200.0469 231.75,199.7813 Q232.3438,199.5 232.9688,198.9219 L232.9688,201.6406 Z "/><text fill="#000000" font-family="sans-serif" font-size="12" lengthAdjust="spacingAndGlyphs" textLength="98" x="244" y="200.1543">AiStateEatPlant</text><line style="stroke: #A80036; stroke-width: 1.5;" x1="216" x2="344" y1="212" y2="212"/><line style="stroke: #A80036; stroke-width: 1.5;" x1="216" x2="344" y1="220" y2="220"/><ellipse cx="226" cy="231" fill="#84BE84" rx="3" ry="3" style="stroke: #038048; stroke-width: 1.0;"/><text fill="#000000" font-family="sans-serif" font-size="11" lengthAdjust="spacingAndGlyphs" textLength="78" x="235" y="234.2104">update(): void</text></a><!--MD5=[af772f8550f9215bd32b0d137f557a72]
class pwr.sim.animal.ai.state.IAiState--><a href="IAiState.html" target="_top" title="IAiState.html" xlink:actuate="onRequest" xlink:href="IAiState.html" xlink:show="new" xlink:title="IAiState.html" xlink:type="simple"><rect fill="#FEFECE" filter="url(#fqwun962itw0g)" height="60.8047" id="pwr.sim.animal.ai.state.IAiState" style="stroke: #A80036; stroke-width: 1.5;" width="105" x="468.5" y="59"/><ellipse cx="494.3" cy="75" fill="#B4A7E5" rx="11" ry="11" style="stroke: #A80036; stroke-width: 1.0;"/><path d="M490.2219,70.7656 L490.2219,68.6094 L497.6125,68.6094 L497.6125,70.7656 L495.1438,70.7656 L495.1438,78.8438 L497.6125,78.8438 L497.6125,81 L490.2219,81 L490.2219,78.8438 L492.6906,78.8438 L492.6906,70.7656 L490.2219,70.7656 Z "/><text fill="#000000" font-family="sans-serif" font-size="12" font-style="italic" lengthAdjust="spacingAndGlyphs" textLength="49" x="510.7" y="79.1543">IAiState</text><line style="stroke: #A80036; stroke-width: 1.5;" x1="469.5" x2="572.5" y1="91" y2="91"/><line style="stroke: #A80036; stroke-width: 1.5;" x1="469.5" x2="572.5" y1="99" y2="99"/><ellipse cx="479.5" cy="110" fill="#84BE84" rx="3" ry="3" style="stroke: #038048; stroke-width: 1.0;"/><text fill="#000000" font-family="sans-serif" font-size="11" font-style="italic" lengthAdjust="spacingAndGlyphs" textLength="79" x="488.5" y="113.2104">update(): void</text></a><!--MD5=[d6ff7de480351f15b4a4cfc2ecc38967]
class pwr.sim.animal.ai.state.AiStateSleep--><a href="AiStateSleep.html" target="_top" title="AiStateSleep.html" xlink:actuate="onRequest" xlink:href="AiStateSleep.html" xlink:show="new" xlink:title="AiStateSleep.html" xlink:type="simple"><rect fill="#FEFECE" filter="url(#fqwun962itw0g)" height="60.8047" id="pwr.sim.animal.ai.state.AiStateSleep" style="stroke: #A80036; stroke-width: 1.5;" width="112" x="380" y="180"/><ellipse cx="395" cy="196" fill="#ADD1B2" rx="11" ry="11" style="stroke: #A80036; stroke-width: 1.0;"/><path d="M397.9688,201.6406 Q397.3906,201.9375 396.75,202.0781 Q396.1094,202.2344 395.4063,202.2344 Q392.9063,202.2344 391.5781,200.5938 Q390.2656,198.9375 390.2656,195.8125 Q390.2656,192.6875 391.5781,191.0313 Q392.9063,189.375 395.4063,189.375 Q396.1094,189.375 396.75,189.5313 Q397.4063,189.6875 397.9688,189.9844 L397.9688,192.7031 Q397.3438,192.125 396.75,191.8594 Q396.1563,191.5781 395.5313,191.5781 Q394.1875,191.5781 393.5,192.6563 Q392.8125,193.7188 392.8125,195.8125 Q392.8125,197.9063 393.5,198.9844 Q394.1875,200.0469 395.5313,200.0469 Q396.1563,200.0469 396.75,199.7813 Q397.3438,199.5 397.9688,198.9219 L397.9688,201.6406 Z "/><text fill="#000000" font-family="sans-serif" font-size="12" lengthAdjust="spacingAndGlyphs" textLength="80" x="409" y="200.1543">AiStateSleep</text><line style="stroke: #A80036; stroke-width: 1.5;" x1="381" x2="491" y1="212" y2="212"/><line style="stroke: #A80036; stroke-width: 1.5;" x1="381" x2="491" y1="220" y2="220"/><ellipse cx="391" cy="231" fill="#84BE84" rx="3" ry="3" style="stroke: #038048; stroke-width: 1.0;"/><text fill="#000000" font-family="sans-serif" font-size="11" lengthAdjust="spacingAndGlyphs" textLength="78" x="400" y="234.2104">update(): void</text></a><!--MD5=[40300abaaeb8bc98273b3cd335c7cf0b]
class pwr.sim.animal.ai.state.AiStateLookForFood--><a href="AiStateLookForFood.html" target="_top" title="AiStateLookForFood.html" xlink:actuate="onRequest" xlink:href="AiStateLookForFood.html" xlink:show="new" xlink:title="AiStateLookForFood.html" xlink:type="simple"><rect fill="#FEFECE" filter="url(#fqwun962itw0g)" height="60.8047" id="pwr.sim.animal.ai.state.AiStateLookForFood" style="stroke: #A80036; stroke-width: 1.5;" width="157" x="527.5" y="180"/><ellipse cx="542.5" cy="196" fill="#ADD1B2" rx="11" ry="11" style="stroke: #A80036; stroke-width: 1.0;"/><path d="M545.4688,201.6406 Q544.8906,201.9375 544.25,202.0781 Q543.6094,202.2344 542.9063,202.2344 Q540.4063,202.2344 539.0781,200.5938 Q537.7656,198.9375 537.7656,195.8125 Q537.7656,192.6875 539.0781,191.0313 Q540.4063,189.375 542.9063,189.375 Q543.6094,189.375 544.25,189.5313 Q544.9063,189.6875 545.4688,189.9844 L545.4688,192.7031 Q544.8438,192.125 544.25,191.8594 Q543.6563,191.5781 543.0313,191.5781 Q541.6875,191.5781 541,192.6563 Q540.3125,193.7188 540.3125,195.8125 Q540.3125,197.9063 541,198.9844 Q541.6875,200.0469 543.0313,200.0469 Q543.6563,200.0469 544.25,199.7813 Q544.8438,199.5 545.4688,198.9219 L545.4688,201.6406 Z "/><text fill="#000000" font-family="sans-serif" font-size="12" lengthAdjust="spacingAndGlyphs" textLength="125" x="556.5" y="200.1543">AiStateLookForFood</text><line style="stroke: #A80036; stroke-width: 1.5;" x1="528.5" x2="683.5" y1="212" y2="212"/><line style="stroke: #A80036; stroke-width: 1.5;" x1="528.5" x2="683.5" y1="220" y2="220"/><ellipse cx="538.5" cy="231" fill="#84BE84" rx="3" ry="3" style="stroke: #038048; stroke-width: 1.0;"/><text fill="#000000" font-family="sans-serif" font-size="11" lengthAdjust="spacingAndGlyphs" textLength="78" x="547.5" y="234.2104">update(): void</text></a><!--MD5=[2101adf7b36736fda214d54ec3e7eccf]
class pwr.sim.animal.ai.state.AiStateHunt--><a href="AiStateHunt.html" target="_top" title="AiStateHunt.html" xlink:actuate="onRequest" xlink:href="AiStateHunt.html" xlink:show="new" xlink:title="AiStateHunt.html" xlink:type="simple"><rect fill="#FEFECE" filter="url(#fqwun962itw0g)" height="60.8047" id="pwr.sim.animal.ai.state.AiStateHunt" style="stroke: #A80036; stroke-width: 1.5;" width="107" x="719.5" y="180"/><ellipse cx="734.5" cy="196" fill="#ADD1B2" rx="11" ry="11" style="stroke: #A80036; stroke-width: 1.0;"/><path d="M737.4688,201.6406 Q736.8906,201.9375 736.25,202.0781 Q735.6094,202.2344 734.9063,202.2344 Q732.4063,202.2344 731.0781,200.5938 Q729.7656,198.9375 729.7656,195.8125 Q729.7656,192.6875 731.0781,191.0313 Q732.4063,189.375 734.9063,189.375 Q735.6094,189.375 736.25,189.5313 Q736.9063,189.6875 737.4688,189.9844 L737.4688,192.7031 Q736.8438,192.125 736.25,191.8594 Q735.6563,191.5781 735.0313,191.5781 Q733.6875,191.5781 733,192.6563 Q732.3125,193.7188 732.3125,195.8125 Q732.3125,197.9063 733,198.9844 Q733.6875,200.0469 735.0313,200.0469 Q735.6563,200.0469 736.25,199.7813 Q736.8438,199.5 737.4688,198.9219 L737.4688,201.6406 Z "/><text fill="#000000" font-family="sans-serif" font-size="12" lengthAdjust="spacingAndGlyphs" textLength="75" x="748.5" y="200.1543">AiStateHunt</text><line style="stroke: #A80036; stroke-width: 1.5;" x1="720.5" x2="825.5" y1="212" y2="212"/><line style="stroke: #A80036; stroke-width: 1.5;" x1="720.5" x2="825.5" y1="220" y2="220"/><ellipse cx="730.5" cy="231" fill="#84BE84" rx="3" ry="3" style="stroke: #038048; stroke-width: 1.0;"/><text fill="#000000" font-family="sans-serif" font-size="11" lengthAdjust="spacingAndGlyphs" textLength="78" x="739.5" y="234.2104">update(): void</text></a><!--MD5=[35291f84c5102aa19c3fb4f3ba4efe54]
class pwr.sim.animal.ai.state.AiStateCopulate--><a href="AiStateCopulate.html" target="_top" title="AiStateCopulate.html" xlink:actuate="onRequest" xlink:href="AiStateCopulate.html" xlink:show="new" xlink:title="AiStateCopulate.html" xlink:type="simple"><rect fill="#FEFECE" filter="url(#fqwun962itw0g)" height="60.8047" id="pwr.sim.animal.ai.state.AiStateCopulate" style="stroke: #A80036; stroke-width: 1.5;" width="133" x="861.5" y="180"/><ellipse cx="876.5" cy="196" fill="#ADD1B2" rx="11" ry="11" style="stroke: #A80036; stroke-width: 1.0;"/><path d="M879.4688,201.6406 Q878.8906,201.9375 878.25,202.0781 Q877.6094,202.2344 876.9063,202.2344 Q874.4063,202.2344 873.0781,200.5938 Q871.7656,198.9375 871.7656,195.8125 Q871.7656,192.6875 873.0781,191.0313 Q874.4063,189.375 876.9063,189.375 Q877.6094,189.375 878.25,189.5313 Q878.9063,189.6875 879.4688,189.9844 L879.4688,192.7031 Q878.8438,192.125 878.25,191.8594 Q877.6563,191.5781 877.0313,191.5781 Q875.6875,191.5781 875,192.6563 Q874.3125,193.7188 874.3125,195.8125 Q874.3125,197.9063 875,198.9844 Q875.6875,200.0469 877.0313,200.0469 Q877.6563,200.0469 878.25,199.7813 Q878.8438,199.5 879.4688,198.9219 L879.4688,201.6406 Z "/><text fill="#000000" font-family="sans-serif" font-size="12" lengthAdjust="spacingAndGlyphs" textLength="101" x="890.5" y="200.1543">AiStateCopulate</text><line style="stroke: #A80036; stroke-width: 1.5;" x1="862.5" x2="993.5" y1="212" y2="212"/><line style="stroke: #A80036; stroke-width: 1.5;" x1="862.5" x2="993.5" y1="220" y2="220"/><ellipse cx="872.5" cy="231" fill="#84BE84" rx="3" ry="3" style="stroke: #038048; stroke-width: 1.0;"/><text fill="#000000" font-family="sans-serif" font-size="11" lengthAdjust="spacingAndGlyphs" textLength="78" x="881.5" y="234.2104">update(): void</text></a><!--MD5=[24be54786d3ad3ff38e49f9b8c481d90]
reverse link pwr.sim.animal.ai.state.IAiState to pwr.sim.animal.ai.state.AiStateEatCorpse--><path d="M448.81,109.4 C383.15,126.85 283.71,153.94 198,180 C192.24,181.75 186.28,183.61 180.31,185.52 " fill="none" id="pwr.sim.animal.ai.state.IAiState&lt;-pwr.sim.animal.ai.state.AiStateEatCorpse" style="stroke: #A80036; stroke-width: 1.0; stroke-dasharray: 7.0,7.0;"/><polygon fill="none" points="447.34,102.55,468.46,104.2,450.92,116.08,447.34,102.55" style="stroke: #A80036; stroke-width: 1.0;"/><!--MD5=[174119230dd55305b2c26203f87b3b2f]
reverse link pwr.sim.animal.ai.state.IAiState to pwr.sim.animal.ai.state.AiStateEatPlant--><path d="M450.29,125.41 C415.31,142.69 373.54,163.31 340.12,179.82 " fill="none" id="pwr.sim.animal.ai.state.IAiState&lt;-pwr.sim.animal.ai.state.AiStateEatPlant" style="stroke: #A80036; stroke-width: 1.0; stroke-dasharray: 7.0,7.0;"/><polygon fill="none" points="447.38,119.05,468.41,116.47,453.58,131.6,447.38,119.05" style="stroke: #A80036; stroke-width: 1.0;"/><!--MD5=[e592b11b2e4325c24b9ab7df11589baa]
reverse link pwr.sim.animal.ai.state.IAiState to pwr.sim.animal.ai.state.AiStateSleep--><path d="M488.13,136.52 C477.76,151.03 466.59,166.68 457.25,179.74 " fill="none" id="pwr.sim.animal.ai.state.IAiState&lt;-pwr.sim.animal.ai.state.AiStateSleep" style="stroke: #A80036; stroke-width: 1.0; stroke-dasharray: 7.0,7.0;"/><polygon fill="none" points="482.45,132.43,499.77,120.22,493.84,140.57,482.45,132.43" style="stroke: #A80036; stroke-width: 1.0;"/><!--MD5=[29c8f476f0695d5effd0b4dd77c410e4]
reverse link pwr.sim.animal.ai.state.IAiState to pwr.sim.animal.ai.state.AiStateLookForFood--><path d="M553.87,136.52 C564.24,151.03 575.41,166.68 584.75,179.74 " fill="none" id="pwr.sim.animal.ai.state.IAiState&lt;-pwr.sim.animal.ai.state.AiStateLookForFood" style="stroke: #A80036; stroke-width: 1.0; stroke-dasharray: 7.0,7.0;"/><polygon fill="none" points="548.16,140.57,542.23,120.22,559.55,132.43,548.16,140.57" style="stroke: #A80036; stroke-width: 1.0;"/><!--MD5=[4afa87c970f83683a30a40436ddf9837]
reverse link pwr.sim.animal.ai.state.IAiState to pwr.sim.animal.ai.state.AiStateHunt--><path d="M591.64,123.86 C632.08,142.96 682.02,166.54 719.24,184.12 " fill="none" id="pwr.sim.animal.ai.state.IAiState&lt;-pwr.sim.animal.ai.state.AiStateHunt" style="stroke: #A80036; stroke-width: 1.0; stroke-dasharray: 7.0,7.0;"/><polygon fill="none" points="588.62,130.17,573.52,115.3,594.59,117.51,588.62,130.17" style="stroke: #A80036; stroke-width: 1.0;"/><!--MD5=[733dfd892e0ff27a6477abb609519e98]
reverse link pwr.sim.animal.ai.state.IAiState to pwr.sim.animal.ai.state.AiStateCopulate--><path d="M593.3,109.04 C659.04,126.25 758.52,153.18 844,180 C849.6,181.76 855.4,183.64 861.19,185.58 " fill="none" id="pwr.sim.animal.ai.state.IAiState&lt;-pwr.sim.animal.ai.state.AiStateCopulate" style="stroke: #A80036; stroke-width: 1.0; stroke-dasharray: 7.0,7.0;"/><polygon fill="none" points="591.22,115.73,573.63,103.92,594.74,102.18,591.22,115.73" style="stroke: #A80036; stroke-width: 1.0;"/><text fill="#888888" font-family="sans-serif" font-size="10" lengthAdjust="spacingAndGlyphs" textLength="186" x="429.5" y="292.2822">UMLDoclet 2.0.9, PlantUML 1.2020.08</text><!--MD5=[d8517b2f9955cf56dd988b137f38fb8d]
@startuml
    namespace pwr.sim.animal.ai.state {

        class AiStateEatCorpse [[AiStateEatCorpse.html]] {
            +update(): void
        }

        class AiStateEatPlant [[AiStateEatPlant.html]] {
            +update(): void
        }

        interface IAiState [[IAiState.html]] {
            {abstract} +update(): void
        }

        class AiStateSleep [[AiStateSleep.html]] {
            +update(): void
        }

        class AiStateLookForFood [[AiStateLookForFood.html]] {
            +update(): void
        }

        class AiStateHunt [[AiStateHunt.html]] {
            +update(): void
        }

        class AiStateCopulate [[AiStateCopulate.html]] {
            +update(): void
        }

        IAiState <|.. AiStateEatCorpse
        IAiState <|.. AiStateEatPlant
        IAiState <|.. AiStateSleep
        IAiState <|.. AiStateLookForFood
        IAiState <|.. AiStateHunt
        IAiState <|.. AiStateCopulate
    }

    center footer UMLDoclet 2.0.9, PlantUML 1.2020.08
@enduml

PlantUML version 1.2020.08(Sun Apr 26 16:08:22 CEST 2020)
(APACHE source distribution)
Java Runtime: OpenJDK Runtime Environment
JVM: OpenJDK 64-Bit Server VM
Java Version: 11.0.7+10-post-Ubuntu-3ubuntu1
Operating System: Linux
Default Encoding: UTF-8
Language: en
Country: GB
--></g></svg>