<?xml version="1.0" encoding="UTF-8" standalone="no"?><svg xmlns="http://www.w3.org/2000/svg" xmlns:xlink="http://www.w3.org/1999/xlink" contentScriptType="application/ecmascript" contentStyleType="text/css" height="305px" preserveAspectRatio="none" style="width:427px;height:305px;" version="1.1" viewBox="0 0 427 305" width="427px" zoomAndPan="magnify"><defs><filter height="300%" id="f1rz916wjfz58w" width="300%" x="-1" y="-1"><feGaussianBlur result="blurOut" stdDeviation="2.0"/><feColorMatrix in="blurOut" result="blurOut2" type="matrix" values="0 0 0 0 0 0 0 0 0 0 0 0 0 0 0 0 0 0 .4 0"/><feOffset dx="4.0" dy="4.0" in="blurOut2" result="blurOut3"/><feBlend in="SourceGraphic" in2="blurOut3" mode="normal"/></filter></defs><g><!--MD5=[c2dcf61bf1b29a597783dba432290bbf]
cluster pwr.sim.tile--><polygon fill="#FFFFFF" filter="url(#f1rz916wjfz58w)" points="22,24,120,24,127,46.2969,405,46.2969,405,257,22,257,22,24" style="stroke: #000000; stroke-width: 1.5;"/><line style="stroke: #000000; stroke-width: 1.5;" x1="22" x2="127" y1="46.2969" y2="46.2969"/><text fill="#000000" font-family="sans-serif" font-size="14" font-weight="bold" lengthAdjust="spacingAndGlyphs" textLength="92" x="26" y="38.9951">pwr.sim.tile</text><!--MD5=[e4e8e6ac90e2a09c873f0220781c3de9]
class pwr.sim.tile.DesertTile--><a href="DesertTile.html" target="_top" title="DesertTile.html" xlink:actuate="onRequest" xlink:href="DesertTile.html" xlink:show="new" xlink:title="DesertTile.html" xlink:type="simple"><rect fill="#FEFECE" filter="url(#f1rz916wjfz58w)" height="60.8047" id="pwr.sim.tile.DesertTile" style="stroke: #A80036; stroke-width: 1.5;" width="95" x="38.5" y="180"/><ellipse cx="53.5" cy="196" fill="#ADD1B2" rx="11" ry="11" style="stroke: #A80036; stroke-width: 1.0;"/><path d="M56.4688,201.6406 Q55.8906,201.9375 55.25,202.0781 Q54.6094,202.2344 53.9063,202.2344 Q51.4063,202.2344 50.0781,200.5938 Q48.7656,198.9375 48.7656,195.8125 Q48.7656,192.6875 50.0781,191.0313 Q51.4063,189.375 53.9063,189.375 Q54.6094,189.375 55.25,189.5313 Q55.9063,189.6875 56.4688,189.9844 L56.4688,192.7031 Q55.8438,192.125 55.25,191.8594 Q54.6563,191.5781 54.0313,191.5781 Q52.6875,191.5781 52,192.6563 Q51.3125,193.7188 51.3125,195.8125 Q51.3125,197.9063 52,198.9844 Q52.6875,200.0469 54.0313,200.0469 Q54.6563,200.0469 55.25,199.7813 Q55.8438,199.5 56.4688,198.9219 L56.4688,201.6406 Z "/><text fill="#000000" font-family="sans-serif" font-size="12" lengthAdjust="spacingAndGlyphs" textLength="63" x="67.5" y="200.1543">DesertTile</text><line style="stroke: #A80036; stroke-width: 1.5;" x1="39.5" x2="132.5" y1="212" y2="212"/><line style="stroke: #A80036; stroke-width: 1.5;" x1="39.5" x2="132.5" y1="220" y2="220"/><ellipse cx="49.5" cy="231" fill="#84BE84" rx="3" ry="3" style="stroke: #038048; stroke-width: 1.0;"/><text fill="#000000" font-family="sans-serif" font-size="11" lengthAdjust="spacingAndGlyphs" textLength="67" x="58.5" y="234.2104">draw(): void</text></a><!--MD5=[255d31fd1638d93d5cc60083b3595b03]
class pwr.sim.tile.Tile--><a href="Tile.html" target="_top" title="Tile.html" xlink:actuate="onRequest" xlink:href="Tile.html" xlink:show="new" xlink:title="Tile.html" xlink:type="simple"><rect fill="#FEFECE" filter="url(#f1rz916wjfz58w)" height="60.8047" id="pwr.sim.tile.Tile" style="stroke: #A80036; stroke-width: 1.5;" width="93" x="168.5" y="59"/><ellipse cx="201.5" cy="75" fill="#ADD1B2" rx="11" ry="11" style="stroke: #A80036; stroke-width: 1.0;"/><path d="M204.4688,80.6406 Q203.8906,80.9375 203.25,81.0781 Q202.6094,81.2344 201.9063,81.2344 Q199.4063,81.2344 198.0781,79.5938 Q196.7656,77.9375 196.7656,74.8125 Q196.7656,71.6875 198.0781,70.0313 Q199.4063,68.375 201.9063,68.375 Q202.6094,68.375 203.25,68.5313 Q203.9063,68.6875 204.4688,68.9844 L204.4688,71.7031 Q203.8438,71.125 203.25,70.8594 Q202.6563,70.5781 202.0313,70.5781 Q200.6875,70.5781 200,71.6563 Q199.3125,72.7188 199.3125,74.8125 Q199.3125,76.9063 200,77.9844 Q200.6875,79.0469 202.0313,79.0469 Q202.6563,79.0469 203.25,78.7813 Q203.8438,78.5 204.4688,77.9219 L204.4688,80.6406 Z "/><text fill="#000000" font-family="sans-serif" font-size="12" lengthAdjust="spacingAndGlyphs" textLength="21" x="219.5" y="79.1543">Tile</text><line style="stroke: #A80036; stroke-width: 1.5;" x1="169.5" x2="260.5" y1="91" y2="91"/><line style="stroke: #A80036; stroke-width: 1.5;" x1="169.5" x2="260.5" y1="99" y2="99"/><ellipse cx="179.5" cy="110" fill="#84BE84" rx="3" ry="3" style="stroke: #038048; stroke-width: 1.0;"/><text fill="#000000" font-family="sans-serif" font-size="11" lengthAdjust="spacingAndGlyphs" textLength="67" x="188.5" y="113.2104">draw(): void</text></a><!--MD5=[cf4041ff6bf4b05b06bf89537f092f10]
class pwr.sim.tile.ForestTile--><a href="ForestTile.html" target="_top" title="ForestTile.html" xlink:actuate="onRequest" xlink:href="ForestTile.html" xlink:show="new" xlink:title="ForestTile.html" xlink:type="simple"><rect fill="#FEFECE" filter="url(#f1rz916wjfz58w)" height="60.8047" id="pwr.sim.tile.ForestTile" style="stroke: #A80036; stroke-width: 1.5;" width="93" x="168.5" y="180"/><ellipse cx="183.5" cy="196" fill="#ADD1B2" rx="11" ry="11" style="stroke: #A80036; stroke-width: 1.0;"/><path d="M186.4688,201.6406 Q185.8906,201.9375 185.25,202.0781 Q184.6094,202.2344 183.9063,202.2344 Q181.4063,202.2344 180.0781,200.5938 Q178.7656,198.9375 178.7656,195.8125 Q178.7656,192.6875 180.0781,191.0313 Q181.4063,189.375 183.9063,189.375 Q184.6094,189.375 185.25,189.5313 Q185.9063,189.6875 186.4688,189.9844 L186.4688,192.7031 Q185.8438,192.125 185.25,191.8594 Q184.6563,191.5781 184.0313,191.5781 Q182.6875,191.5781 182,192.6563 Q181.3125,193.7188 181.3125,195.8125 Q181.3125,197.9063 182,198.9844 Q182.6875,200.0469 184.0313,200.0469 Q184.6563,200.0469 185.25,199.7813 Q185.8438,199.5 186.4688,198.9219 L186.4688,201.6406 Z "/><text fill="#000000" font-family="sans-serif" font-size="12" lengthAdjust="spacingAndGlyphs" textLength="61" x="197.5" y="200.1543">ForestTile</text><line style="stroke: #A80036; stroke-width: 1.5;" x1="169.5" x2="260.5" y1="212" y2="212"/><line style="stroke: #A80036; stroke-width: 1.5;" x1="169.5" x2="260.5" y1="220" y2="220"/><ellipse cx="179.5" cy="231" fill="#84BE84" rx="3" ry="3" style="stroke: #038048; stroke-width: 1.0;"/><text fill="#000000" font-family="sans-serif" font-size="11" lengthAdjust="spacingAndGlyphs" textLength="67" x="188.5" y="234.2104">draw(): void</text></a><!--MD5=[0a2e2e5dcd3c4966e0ab4445a4d1754e]
class pwr.sim.tile.WaterTile--><a href="WaterTile.html" target="_top" title="WaterTile.html" xlink:actuate="onRequest" xlink:href="WaterTile.html" xlink:show="new" xlink:title="WaterTile.html" xlink:type="simple"><rect fill="#FEFECE" filter="url(#f1rz916wjfz58w)" height="60.8047" id="pwr.sim.tile.WaterTile" style="stroke: #A80036; stroke-width: 1.5;" width="93" x="296.5" y="180"/><ellipse cx="312.85" cy="196" fill="#ADD1B2" rx="11" ry="11" style="stroke: #A80036; stroke-width: 1.0;"/><path d="M315.8188,201.6406 Q315.2406,201.9375 314.6,202.0781 Q313.9594,202.2344 313.2563,202.2344 Q310.7563,202.2344 309.4281,200.5938 Q308.1156,198.9375 308.1156,195.8125 Q308.1156,192.6875 309.4281,191.0313 Q310.7563,189.375 313.2563,189.375 Q313.9594,189.375 314.6,189.5313 Q315.2563,189.6875 315.8188,189.9844 L315.8188,192.7031 Q315.1938,192.125 314.6,191.8594 Q314.0063,191.5781 313.3813,191.5781 Q312.0375,191.5781 311.35,192.6563 Q310.6625,193.7188 310.6625,195.8125 Q310.6625,197.9063 311.35,198.9844 Q312.0375,200.0469 313.3813,200.0469 Q314.0063,200.0469 314.6,199.7813 Q315.1938,199.5 315.8188,198.9219 L315.8188,201.6406 Z "/><text fill="#000000" font-family="sans-serif" font-size="12" lengthAdjust="spacingAndGlyphs" textLength="58" x="327.15" y="200.1543">WaterTile</text><line style="stroke: #A80036; stroke-width: 1.5;" x1="297.5" x2="388.5" y1="212" y2="212"/><line style="stroke: #A80036; stroke-width: 1.5;" x1="297.5" x2="388.5" y1="220" y2="220"/><ellipse cx="307.5" cy="231" fill="#84BE84" rx="3" ry="3" style="stroke: #038048; stroke-width: 1.0;"/><text fill="#000000" font-family="sans-serif" font-size="11" lengthAdjust="spacingAndGlyphs" textLength="67" x="316.5" y="234.2104">draw(): void</text></a><!--MD5=[517225b6bb62042e671840763edf8f71]
reverse link pwr.sim.tile.Tile to pwr.sim.tile.DesertTile--><path d="M167.92,133.93 C151.42,149.15 133.27,165.9 118.26,179.74 " fill="none" id="pwr.sim.tile.Tile&lt;-pwr.sim.tile.DesertTile" style="stroke: #A80036; stroke-width: 1.0;"/><polygon fill="none" points="163.33,128.64,182.78,120.22,172.83,138.93,163.33,128.64" style="stroke: #A80036; stroke-width: 1.0;"/><!--MD5=[53dd2a6f0cf712c8ba6353c350253f78]
reverse link pwr.sim.tile.Tile to pwr.sim.tile.ForestTile--><path d="M215,140.33 C215,153.73 215,167.81 215,179.74 " fill="none" id="pwr.sim.tile.Tile&lt;-pwr.sim.tile.ForestTile" style="stroke: #A80036; stroke-width: 1.0;"/><polygon fill="none" points="208,140.22,215,120.22,222,140.22,208,140.22" style="stroke: #A80036; stroke-width: 1.0;"/><!--MD5=[d91a11ff80edeb6680de7c21f7862340]
reverse link pwr.sim.tile.Tile to pwr.sim.tile.WaterTile--><path d="M261.71,133.93 C278.09,149.15 296.1,165.9 310.99,179.74 " fill="none" id="pwr.sim.tile.Tile&lt;-pwr.sim.tile.WaterTile" style="stroke: #A80036; stroke-width: 1.0;"/><polygon fill="none" points="256.85,138.97,246.97,120.22,266.38,128.71,256.85,138.97" style="stroke: #A80036; stroke-width: 1.0;"/><text fill="#888888" font-family="sans-serif" font-size="10" lengthAdjust="spacingAndGlyphs" textLength="186" x="126.5" y="292.2822">UMLDoclet 2.0.9, PlantUML 1.2020.08</text><!--MD5=[69fabb4a7f6e7b42455ead10d7e1a2c9]
@startuml
    namespace pwr.sim.tile {

        class DesertTile [[DesertTile.html]] {
            +draw(): void
        }

        class Tile [[Tile.html]] {
            +draw(): void
        }

        class ForestTile [[ForestTile.html]] {
            +draw(): void
        }

        class WaterTile [[WaterTile.html]] {
            +draw(): void
        }

        Tile <|- - DesertTile
        Tile <|- - ForestTile
        Tile <|- - WaterTile
    }

    center footer UMLDoclet 2.0.9, PlantUML 1.2020.08
@enduml

PlantUML version 1.2020.08(Sun Apr 26 16:08:22 CEST 2020)
(APACHE source distribution)
Java Runtime: OpenJDK Runtime Environment
JVM: OpenJDK 64-Bit Server VM
Java Version: 11.0.7+10-post-Ubuntu-3ubuntu1
Operating System: Linux
Default Encoding: UTF-8
Language: en
Country: GB
--></g></svg>